<?xml version="1.0" standalone="no"?>
<!DOCTYPE svg PUBLIC "-//W3C//DTD SVG 20010904//EN"
 "http://www.w3.org/TR/2001/REC-SVG-20010904/DTD/svg10.dtd">
<svg version="1.0" xmlns="http://www.w3.org/2000/svg"
 width="600.000000pt" height="600.000000pt" viewBox="0 0 600.000000 600.000000"
 preserveAspectRatio="xMidYMid meet">
<metadata>
Created by potrace 1.11, written by Peter Selinger 2001-2013
</metadata>
<g transform="translate(0.000000,600.000000) scale(0.100000,-0.100000)"
fill="#000000" stroke="none">
<path d="M2608 5985 c-556 -78 -1057 -292 -1488 -635 -135 -107 -363 -335
-470 -470 -273 -343 -475 -755 -574 -1169 -65 -271 -71 -327 -71 -711 0 -384
6 -440 71 -711 99 -414 301 -826 574 -1169 107 -135 335 -363 470 -470 343
-273 755 -475 1169 -574 271 -65 327 -71 711 -71 384 0 440 6 711 71 414 99
826 301 1169 574 136 108 365 337 470 470 274 345 475 755 574 1169 65 271 71
327 71 711 0 384 -6 440 -71 711 -99 414 -301 826 -574 1169 -107 135 -335
363 -470 470 -344 273 -757 476 -1170 575 -260 61 -311 67 -670 71 -246 2
-361 -1 -432 -11z m202 -2780 l0 -1695 -210 0 -210 0 -2 216 -3 215 -54 -76
c-67 -93 -227 -248 -304 -294 -173 -102 -377 -135 -582 -92 -237 49 -413 194
-535 439 -161 324 -182 869 -49 1266 115 344 351 593 641 677 106 30 309 37
414 14 159 -35 279 -102 403 -226 l71 -71 0 661 0 661 210 0 210 0 0 -1695z
m780 0 l0 -1695 -210 0 -210 0 0 1695 0 1695 210 0 210 0 0 -1695z m1418 618
c-18 -22 -863 -979 -890 -1009 l-19 -21 442 -489 c244 -269 505 -558 582 -641
l139 -153 -284 0 -283 0 -545 603 c-299 331 -544 609 -544 617 0 8 218 262
484 563 l484 547 224 0 c213 0 224 -1 210 -17z"/>
<path d="M1680 3564 c-118 -32 -206 -91 -273 -187 -123 -172 -173 -355 -184
-662 -15 -467 86 -756 302 -860 52 -25 74 -30 167 -33 90 -4 119 -1 180 18
165 49 309 158 460 348 l58 73 0 504 0 504 -75 67 c-229 206 -438 281 -635
228z"/>
</g>
</svg>
